# xmcd
#
# Track frame offsets: 
#        200
#        4377
#        18392
#        36030
#        52052
#        63805
#        86122
#        99592
#        116945
#        132812
#        149485
#        155377
#        166032
#        179597
#        196772
#        200785
#        226615
#
# Disc length: 3577 seconds
#
# Revision: 2
# Processed by: cddbd v1.5.2PL0 Copyright (c) Steve Scherf et al.
# Submitted via: ExactAudioCopy v0.95b4
#
DISCID=e70df711
DTITLE=Goober and The Peas - The Complete Works of Goober and The Peas
DYEAR=1992
DGENRE=Rock and Roll
TTITLE0=Dear Grandpa
TTITLE1=Funky Cowboy
TTITLE2=Up the Stairs
TTITLE3=Hot Women (Cold Beer)
TTITLE4=Consider Me
TTITLE5=Don't Be Afraid...
TTITLE6=My Own Best Friend
TTITLE7=Garden
TTITLE8=If You Want Me
TTITLE9=The Ballad of Ms. Amichi
TTITLE10=Nothing Like Hers
TTITLE11=It'll Getcha
TTITLE12=Hunt for Grandpa (Let's Go)
TTITLE13=Druthers
TTITLE14=Dear Grandpa (Reprise)
TTITLE15=Funky Cowboy (Hillbilly Mix)
TTITLE16=Filler dialogue
EXTD=
EXTT0=
EXTT1=
EXTT2=
EXTT3=
EXTT4=
EXTT5=
EXTT6=
EXTT7=
EXTT8=
EXTT9=
EXTT10=
EXTT11=
EXTT12=
EXTT13=
EXTT14=
EXTT15=
EXTT16=
PLAYORDER=
